<svg xmlns="http://www.w3.org/2000/svg" viewBox="0 0 103.2 22"><defs><style>.cls-1{fill:#fff;}</style></defs><title>决策平台logo</title><g id="图层_2" data-name="图层 2"><g id="图层_1-2" data-name="图层 1"><path class="cls-1" d="M33.16,13.12c-.9,2.18-1.95,4.42-3,6.46l-2.45-1.69A57.84,57.84,0,0,0,31,11.41ZM31,8.62a32.8,32.8,0,0,0-3-4.56L30.2,2.73a36,36,0,0,1,3.21,4.34ZM41.9,13.26a8,8,0,0,0,4.79,4.63,10.75,10.75,0,0,0-1.89,2.49,9.7,9.7,0,0,1-5.2-5.67,11.38,11.38,0,0,1-5.28,5.78,12.08,12.08,0,0,0-2.1-2.3,8.24,8.24,0,0,0,4.85-4.94H33.51V10.55h4.07c0-.56.06-1.11.06-1.65V7.42H34.31V4.75h3.33V1.95h3v2.8H44.9v5.8h1.42v2.71ZM40.61,8.92q0,.82-.06,1.63h1.64V7.42H40.61Z"/><path class="cls-1" d="M64.26,13.59c0,1.15-.23,1.71-1,2A5.92,5.92,0,0,1,61.1,16a20.58,20.58,0,0,0,4.83,1.36,13.27,13.27,0,0,0-1.79,2.49,15.93,15.93,0,0,1-5.78-2.74v3.37H55.3V17a15.73,15.73,0,0,1-6.05,3,12.05,12.05,0,0,0-1.75-2.38A14.48,14.48,0,0,0,55.3,14V12.81H52.17v3.25h-3V10.44H55.3V9.81H48V7.4h1.46A17.69,17.69,0,0,0,47.2,5.94a10.65,10.65,0,0,0,3-4.15l2.71.74a8.46,8.46,0,0,1-.41.86h3.84V5.12a9.91,9.91,0,0,0,1.89-3.33l2.76.68c-.12.31-.23.6-.37.91h5V5.72H62.84a7.38,7.38,0,0,1,.56,1.09l-1.83.58h3.6V9.81H58.36v.62h5.9ZM51.06,5.72a15.85,15.85,0,0,1-1.4,1.67H52a13.67,13.67,0,0,0-.86-1.67ZM55.3,7.4v-1h1c-.31-.19-.62-.37-.86-.51.08-.08.18-.14.25-.21H54a7.52,7.52,0,0,1,.56,1.13L53.1,7.4Zm5.51,0A15.28,15.28,0,0,0,60,5.72h-.64a13.56,13.56,0,0,1-1,1.27V7.4Zm-2.45,7a10.2,10.2,0,0,0,1.83,1.15,12.78,12.78,0,0,0-.78-1.71c.54.06,1.38,0,1.6,0s.33-.06.33-.27v-.78h-3Z"/><path class="cls-1" d="M85,14.21h-7.5v6.23h-3V14.21H67.09V11.35h7.44V5.92H68.14V3.12H83.83v2.8H77.48v5.43H85ZM71.8,6.37a15.62,15.62,0,0,1,1.42,3.74L70.46,11a17.13,17.13,0,0,0-1.25-3.84Zm6.93,3.8a21.1,21.1,0,0,0,1.46-3.84l3,.76a40.51,40.51,0,0,1-2,3.8Z"/><path class="cls-1" d="M100.81,11a12.85,12.85,0,0,0-.91-1.38c-9.93.43-11.47.47-12.63.86a23.72,23.72,0,0,0-.93-2.71A3.67,3.67,0,0,0,88,6.72,24.21,24.21,0,0,0,91.91,1.5l2.86,1.23A32.24,32.24,0,0,1,90.92,7.3l6.91-.18c-.66-.76-1.32-1.48-1.95-2.12l2.2-1.48a42.23,42.23,0,0,1,5.12,5.76Zm-13.14.58h13.59v8.82H98.2v-1H90.57v1h-2.9Zm2.9,2.71v2.43H98.2V14.33Z"/><path class="cls-1" d="M17,5v7a5,5,0,0,1-5,5H5V10a5,5,0,0,1,5-5h7m5-5H10A10,10,0,0,0,0,10V22H12A10,10,0,0,0,22,12V0Z"/></g></g></svg>