<?xml version="1.0" encoding="UTF-8"?>
<svg width="24px" height="24px" viewBox="0 0 24 24" version="1.1" xmlns="http://www.w3.org/2000/svg" xmlns:xlink="http://www.w3.org/1999/xlink">
    <!-- Generator: Sketch 52.1 (67048) - http://www.bohemiancoding.com/sketch -->
    <title>Slice</title>
    <desc>Created with Sketch.</desc>
    <g id="Page-1" stroke="none" stroke-width="1" fill="none" fill-rule="evenodd">
        <g id="Group-12-Copy" transform="translate(0.000000, 1.000000)" fill="#FFFFFF">
            <g id="Group-6" transform="translate(0.000000, 0.389231)">
                <g id="Group-5">
                    <path d="M9.0367902,21.3467865 L3.01259412,21.3467865 C1.32547647,21.3467865 4.50980392e-05,20.0472865 4.50980392e-05,18.3930558 L4.50980392e-05,3.03126731 C4.50980392e-05,1.37659423 1.32547647,0.0770942308 3.01259412,0.0770942308 L16.2651039,0.0770942308 C17.9531235,0.0770942308 19.2781039,1.37659423 19.2781039,3.03126731 L19.2781039,6.57592115 C19.2781039,6.93065192 19.0363784,7.16684423 18.6751431,7.16684423 C18.3130059,7.16684423 18.0735353,6.93065192 18.0735353,6.57592115 L18.0735353,3.03126731 C18.0735353,2.08561346 17.229751,1.25849808 16.2651039,1.25849808 L3.01259412,1.25849808 C2.04839804,1.25849808 1.20506471,2.08561346 1.20506471,3.03126731 L1.20506471,18.3930558 C1.20506471,19.3382673 2.04839804,20.1653827 3.01259412,20.1653827 L9.0367902,20.1653827 C9.39847647,20.1653827 9.63975098,20.4011327 9.63975098,20.7554212 C9.63975098,21.1105942 9.39847647,21.3467865 9.0367902,21.3467865" id="Fill-3"></path>
                </g>
            </g>
            <g id="Group-11" transform="translate(4.509804, 4.812308)">
                <path d="M12.9610863,10.1887788 L15.3706745,14.5614327 L10.6710078,14.5614327 L12.9610863,10.1887788 Z M14.0447922,9.59829808 L13.5635961,8.88795192 C13.3218706,9.00693269 13.2010078,9.12458654 12.8402235,9.12458654 C12.598949,9.12458654 12.3581255,9.00693269 12.117302,8.88795192 L11.7551647,9.59829808 L8.86392941,14.6786442 L17.1782039,14.6786442 L14.0447922,9.59829808 Z M9.34692941,5.10710577 L0.912694118,5.10710577 C0.551458824,5.10710577 0.310184314,4.87091346 0.310184314,4.516625 C0.310184314,4.16189423 0.551458824,3.92525962 0.912694118,3.92525962 L9.34692941,3.92525962 C9.70771373,3.92525962 9.94898824,4.16189423 9.94898824,4.516625 C9.94898824,4.87091346 9.70771373,5.10710577 9.34692941,5.10710577 Z M9.34692941,1.56245192 L0.912694118,1.56245192 C0.551458824,1.56245192 0.310184314,1.32581731 0.310184314,0.971528846 C0.310184314,0.616798077 0.551458824,0.380605769 0.912694118,0.380605769 L9.34692941,0.380605769 C9.70771373,0.380605769 9.94898824,0.616798077 9.94898824,0.971528846 C9.94898824,1.32581731 9.70771373,1.56245192 9.34692941,1.56245192 Z" id="Fill-7"></path>
                <ellipse id="Oval" fill-rule="nonzero" cx="12.8529412" cy="8.18269231" rx="1.57843137" ry="1.54807692"></ellipse>
                <path d="M17.1781137,14.5614327 L8.74387843,14.5614327 C8.02050588,14.5614327 7.53840784,15.0329327 7.53840784,15.7423942 L7.53840784,16.9237981 C7.53840784,17.632375 8.02050588,18.1052019 8.74387843,18.1052019 L17.1781137,18.1052019 C17.9010353,18.1052019 18.3822314,17.632375 18.3822314,16.9237981 L18.3822314,15.7423942 C18.3822314,15.1514712 17.7806235,14.5614327 17.1781137,14.5614327 Z M8.74387843,16.9237981 L17.1781137,16.9237981 L17.1781137,15.7423942 L8.74387843,15.7423942 L8.74387843,16.9237981 Z" id="Fill-9"></path>
            </g>
        </g>
    </g>
</svg>