<?xml version="1.0" encoding="UTF-8"?>
<svg width="47px" height="39px" viewBox="0 0 47 39" version="1.1" xmlns="http://www.w3.org/2000/svg" xmlns:xlink="http://www.w3.org/1999/xlink">
    <!-- Generator: Sketch 50.2 (55047) - http://www.bohemiancoding.com/sketch -->
    <title>Group</title>
    <desc>Created with Sketch.</desc>
    <defs></defs>
    <g id="Page-1" stroke="none" stroke-width="1" fill="none" fill-rule="evenodd">
        <g id="首页" transform="translate(-20.000000, -16.000000)" fill="#FFFFFF">
            <g id="Group" transform="translate(20.000000, 16.000000)">
                <path d="M4.83967181,17.496 L1.05571068,17.496 C1.75767343,14.957219 3.32684581,13.1731614 4.96828421,12.0800548 C6.04018448,11.3662289 6.45647642,9.83949785 7.04205566,8.12858156 L12.4301406,13.7081069 L12.4301406,22.2 L8.94966902,22.2 C8.67315029,21.4169907 7.92703264,20.856 7.05,20.856 C5.93754072,20.856 5.03571429,21.7585939 5.03571429,22.872 C5.03571429,23.9854061 5.93754072,24.888 7.05,24.888 C7.92703264,24.888 8.67315029,24.3270093 8.94966902,23.544 L13.4285714,23.544 L13.4285714,23.5388708 L13.7741406,23.5388708 L13.7741406,13.1317279 L13.7470152,13.1317279 L13.7590301,13.1233682 L7.57554171,6.700712 C7.97962539,5.73611975 8.50150077,4.76771661 9.27590281,3.89819503 L14.7694244,9.42364993 L14.7714286,9.42164576 L14.7714286,9.432 L21.2512784,9.432 L24.0176438,12.2761432 L22.157258,14.1379181 L22.1565714,14.138 L22.1565714,16.6280407 C21.5640372,16.8874142 21.15,17.4793142 21.15,18.168 C21.15,19.0958384 21.901522,19.848 22.8285714,19.848 C23.7556208,19.848 24.5071429,19.0958384 24.5071429,18.168 C24.5071429,17.4793142 24.0931057,16.8874142 23.5005714,16.6280407 L23.5005714,14.6915475 L27.752119,10.44 L35.5851429,10.44 L35.5851429,14.472 L33.7925262,14.472 C33.5160074,13.6889907 32.7698898,13.128 31.8928571,13.128 C30.7803979,13.128 29.8785714,14.0305939 29.8785714,15.144 C29.8785714,16.2574061 30.7803979,17.16 31.8928571,17.16 C32.7698898,17.16 33.5160074,16.5990093 33.7925262,15.816 L36.9285714,15.816 L36.9285714,15.8134286 L36.9291429,15.8134286 L36.9291429,10.44 L39.6137143,10.44 L39.6137143,15.9560407 C39.02118,16.2154142 38.6071429,16.8073142 38.6071429,17.496 C38.6071429,18.4238384 39.3586649,19.176 40.2857143,19.176 C41.2127637,19.176 41.9642857,18.4238384 41.9642857,17.496 C41.9642857,16.8073142 41.5502485,16.2154142 40.9577143,15.9560407 L40.9577143,10.44 L44.1446425,10.44 C46.6142257,14.4490815 46.9579875,18.1392956 46.6756112,19.9127355 C46.6255196,20.2273315 46.5594838,20.5436054 46.4710258,20.856 L31.5571429,20.856 L31.5571429,20.9153167 L27.0880049,25.3844546 L23.8386493,22.1879631 L23.8271767,22.2 L18.8005714,22.2 L18.8005714,15.3650835 C19.5826164,15.088168 20.1428571,14.3415653 20.1428571,13.464 C20.1428571,12.3505939 19.2410307,11.448 18.1285714,11.448 C17.0161121,11.448 16.1142857,12.3505939 16.1142857,13.464 C16.1142857,14.3415653 16.6745265,15.088168 17.4565714,15.3650835 L17.4565714,22.5321429 L17.4571429,22.5321429 L17.4571429,23.544 L23.4250245,23.544 L30.0576463,30.1766218 C26.9208505,29.8216416 25.1999013,27.9747948 24.972008,28.0878608 C24.350826,28.3960511 23.5395465,32.7446527 20.8266889,36.370517 C18.1138313,39.9963813 17.4845984,38.9295702 17.353667,38.4804355 C17.2227356,38.0313009 19.1795852,31.7518835 16.0924006,32.1204779 C15.4838801,32.1931322 14.546861,32.1101923 13.4291429,31.877608 L13.4291429,29.8130835 C14.2111878,29.536168 14.7714286,28.7895653 14.7714286,27.912 C14.7714286,26.7985939 13.8696021,25.896 12.7571429,25.896 C11.8801102,25.896 11.1339926,26.4569907 10.8574738,27.24 L3.76192003,27.24 C2.14151153,25.7893565 0.972936573,24.032233 0.765182631,21.9891196 C0.630589644,20.8475825 0.645927316,19.7987347 0.779084709,18.84 L4.83967181,18.84 C5.09869439,19.433344 5.69025004,19.848 6.37857143,19.848 C7.30562083,19.848 8.05714286,19.0958384 8.05714286,18.168 C8.05714286,17.2401616 7.30562083,16.488 6.37857143,16.488 C5.69025004,16.488 5.09869439,16.902656 4.83967181,17.496 Z M10.8574738,28.584 C11.0596978,29.1566312 11.5130776,29.6105201 12.0851429,29.8130835 L12.0851429,31.5480653 C10.0108581,30.9672748 7.58446752,29.9698259 5.5085066,28.584 L10.8574738,28.584 Z M45.909654,22.2 C45.004985,23.7450982 43.1835351,24.9434777 39.4525485,24.9434777 C38.8861414,24.9434777 38.5545827,28.8320475 33.3345605,29.9841113 C32.7958366,30.1030082 32.2824103,30.1755942 31.7944708,30.2103241 L31.8932612,30.1115337 L28.0461505,26.3270121 L32.1731626,22.2 L45.909654,22.2 Z M25.3746139,4.392 C25.1155913,3.79865599 24.5240357,3.384 23.8357143,3.384 C22.9086649,3.384 22.1571429,4.13616162 22.1571429,5.064 C22.1571429,5.99183838 22.9086649,6.744 23.8357143,6.744 C24.5240357,6.744 25.1155913,6.32934401 25.3746139,5.736 L30.8857143,5.736 L30.8857143,5.73385714 L30.8862857,5.73385714 L30.8862857,1.79831431 C33.8225528,2.01334328 37.2426443,2.97380595 40.2048866,5.70661837 C41.4165113,6.82440107 42.41813,7.96568692 43.2420992,9.096 L27.1928571,9.096 L27.1928571,9.09855912 L25.0118728,11.2811719 L21.8214286,8.0907277 L21.8214286,8.088 L15.3367043,8.088 L10.2521855,2.97392548 C10.7750819,2.557245 11.3839713,2.17951582 12.099259,1.85629043 C17.7800573,-0.710758144 22.4980214,2.84904127 24.350826,2.39192324 C25.1534071,2.19391302 27.1008939,1.74268935 29.5422857,1.7481832 L29.5422857,4.392 L25.3746139,4.392 Z" id="Combined-Shape"></path>
                <ellipse id="Oval-17" transform="translate(12.757143, 27.912000) scale(-1, 1) translate(-12.757143, -27.912000) " cx="12.7571429" cy="27.912" rx="1.00714286" ry="1.008"></ellipse>
                <ellipse id="Oval-17-Copy-2" transform="translate(22.828571, 18.168000) scale(-1, 1) translate(-22.828571, -18.168000) " cx="22.8285714" cy="18.168" rx="1" ry="1"></ellipse>
                <ellipse id="Oval-17-Copy-3" transform="translate(40.285714, 17.496000) scale(-1, 1) translate(-40.285714, -17.496000) " cx="40.2857143" cy="17.496" rx="1" ry="1"></ellipse>
                <ellipse id="Oval-17-Copy-4" transform="translate(23.835714, 5.064000) scale(-1, 1) translate(-23.835714, -5.064000) " cx="23.8357143" cy="5.064" rx="1" ry="1"></ellipse>
                <ellipse id="Oval-17-Copy-5" transform="translate(6.378571, 18.168000) scale(-1, 1) translate(-6.378571, -18.168000) " cx="6.37857143" cy="18.168" rx="1" ry="1"></ellipse>
            </g>
        </g>
    </g>
</svg>