<?xml version="1.0" encoding="UTF-8"?>
<svg width="24px" height="24px" viewBox="0 0 24 24" version="1.1" xmlns="http://www.w3.org/2000/svg" xmlns:xlink="http://www.w3.org/1999/xlink">
    <!-- Generator: Sketch 52.1 (67048) - http://www.bohemiancoding.com/sketch -->
    <title>Slice</title>
    <desc>Created with Sketch.</desc>
    <g id="Page-1" stroke="none" stroke-width="1" fill="none" fill-rule="evenodd">
        <g id="Group-10-Copy" fill="#FFFFFF">
            <g id="Group-3">
                <path d="M5.280264,22.2857143 L10.195944,22.2857143 L20.240264,12.5022857 L20.240264,9.42857143 C20.240264,5.17542857 16.687704,1.71428571 12.320264,1.71428571 C7.952824,1.71428571 4.400264,5.17542857 4.400264,9.42857143 L4.400264,11.1428571 C4.400264,11.2757143 4.368584,11.4068571 4.307864,11.526 L2.304104,15.4285714 L4.400264,15.4285714 C4.886904,15.4285714 5.280264,15.8125714 5.280264,16.2857143 L5.280264,22.2857143 Z M10.560264,24 L4.400264,24 C3.913624,24 3.520264,23.616 3.520264,23.1428571 L3.520264,17.1428571 L0.880264,17.1428571 C0.574904,17.1428571 0.292424,16.9885714 0.131384,16.7365714 C-0.028776,16.4837143 -0.043736,16.1682857 0.092664,15.9025714 L2.640264,10.9405714 L2.640264,9.42857143 C2.640264,4.23 6.983064,0 12.320264,0 C17.657464,0 22.000264,4.23 22.000264,9.42857143 L22.000264,12.8571429 C22.000264,13.0842857 21.907864,13.3028571 21.742424,13.4631429 L11.182424,23.7488571 C11.017864,23.91 10.794344,24 10.560264,24 Z" id="Fill-1"></path>
            </g>
            <path d="M10.560264,10.2857143 C10.074504,10.2857143 9.680264,10.6705714 9.680264,11.1428571 C9.680264,11.6151429 10.074504,12 10.560264,12 C11.046024,12 11.440264,11.6151429 11.440264,11.1428571 C11.440264,10.6705714 11.046024,10.2857143 10.560264,10.2857143 M10.560264,13.7142857 C9.104744,13.7142857 7.920264,12.5605714 7.920264,11.1428571 C7.920264,9.72514286 9.104744,8.57142857 10.560264,8.57142857 C12.015784,8.57142857 13.200264,9.72514286 13.200264,11.1428571 C13.200264,12.5605714 12.015784,13.7142857 10.560264,13.7142857" id="Fill-4"></path>
            <polygon id="Fill-6" points="18.121048 12 12.320088 12 12.320088 10.2857143 16.361048 10.2857143 16.361048 6.85714286 20.943208 6.85714286 20.943208 8.57142857 18.121048 8.57142857"></polygon>
            <polygon id="Fill-8" points="19.31644 22.2857143 12.32044 22.2857143 12.32044 20.5714286 17.64444 20.5714286 17.92428 15.2742857 19.68252 15.3625714"></polygon>
        </g>
    </g>
</svg>