<?xml version="1.0" encoding="UTF-8"?>
<svg width="24px" height="24px" viewBox="0 0 24 24" version="1.1" xmlns="http://www.w3.org/2000/svg" xmlns:xlink="http://www.w3.org/1999/xlink">
    <!-- Generator: Sketch 52.1 (67048) - http://www.bohemiancoding.com/sketch -->
    <title>Group 7 Copy 3</title>
    <desc>Created with Sketch.</desc>
    <g id="Page-1" stroke="none" stroke-width="1" fill="none" fill-rule="evenodd">
        <g id="Group-7-Copy-3" fill="#FFFFFF">
            <path d="M12,1.6 C6.2656,1.6 1.6,6.2656 1.6,12 C1.6,17.7344 6.2656,22.4 12,22.4 C17.7344,22.4 22.4,17.7344 22.4,12 C22.4,6.2656 17.7344,1.6 12,1.6 M12,24 C5.3832,24 0,18.6168 0,12 C0,5.3832 5.3832,0 12,0 C18.6168,0 24,5.3832 24,12 C24,18.6168 18.6168,24 12,24" id="Fill-1"></path>
            <path d="M12,7.2 C11.1176,7.2 10.4,7.9176 10.4,8.8 C10.4,9.6824 11.1176,10.4 12,10.4 C12.8824,10.4 13.6,9.6824 13.6,8.8 C13.6,7.9176 12.8824,7.2 12,7.2 M12,12 C10.2352,12 8.8,10.5648 8.8,8.8 C8.8,7.0352 10.2352,5.6 12,5.6 C13.7648,5.6 15.2,7.0352 15.2,8.8 C15.2,10.5648 13.7648,12 12,12" id="Fill-3"></path>
            <path d="M16.8,17.6 L15.2,17.6 C15.2,15.8352 13.7648,14.4 12,14.4 C10.2352,14.4 8.8,15.8352 8.8,17.6 L7.2,17.6 C7.2,14.9528 9.3528,12.8 12,12.8 C14.6472,12.8 16.8,14.9528 16.8,17.6" id="Fill-5"></path>
        </g>
    </g>
</svg>